<?xml version="1.0" standalone="no"?><!-- Generator: Adobe Fireworks CS6, Export SVG Extension by Aaron Beall (http://fireworks.abeall.com) . Version: 0.6.1  --><!DOCTYPE svg PUBLIC "-//W3C//DTD SVG 1.1//EN" "http://www.w3.org/Graphics/SVG/1.1/DTD/svg11.dtd"><svg id="Untitled-Page%201" viewBox="0 0 47 44" style="background-color:#ffffff00" version="1.1"	xmlns="http://www.w3.org/2000/svg" xmlns:xlink="http://www.w3.org/1999/xlink" xml:space="preserve"	x="0px" y="0px" width="47px" height="44px">	<g>		<path d="M 39.6563 0 C 38.4416 0 37.4531 0.9897 37.4531 2.2056 L 37.4531 3.0845 L 14.6074 8.0874 L 4.4063 8.0874 L 4.4063 10.9717 L 0 10.9717 L 0 21.2646 L 4.4063 21.2646 L 4.4063 23.4136 L 4.4063 24.1489 L 4.4063 27.0898 L 5.1406 27.0898 C 6.7607 27.0898 8.0781 28.4087 8.0781 30.0308 L 8.0781 40.3237 C 8.0781 41.3062 8.4608 42.2295 9.154 42.9229 C 9.8472 43.6172 10.7696 44 11.75 44 C 12.7304 44 13.6528 43.6172 14.346 42.9229 C 15.0392 42.2295 15.4219 41.3062 15.4219 40.3237 L 15.4219 32.2363 L 18.3594 32.2363 L 18.3594 23.4683 L 16.8906 23.4683 L 16.8906 30.7659 L 15.4219 30.7659 L 15.4219 23.6389 L 13.9531 23.6389 L 13.9531 27.825 L 12.4844 27.825 L 12.4844 29.2954 L 13.9531 29.2954 L 13.9531 30.7659 L 12.4844 30.7659 L 12.4844 32.2363 L 13.9531 32.2363 L 13.9531 33.707 L 12.4844 33.707 L 12.4844 35.1772 L 13.9531 35.1772 L 13.9531 36.6477 L 12.4844 36.6477 L 12.4844 38.1182 L 13.9531 38.1182 L 13.9531 40.3237 C 13.9531 40.9136 13.724 41.4673 13.3076 41.8833 C 12.4749 42.7163 11.0251 42.7163 10.1924 41.8833 C 9.7761 41.4673 9.5469 40.9136 9.5469 40.3237 L 9.5469 30.0308 C 9.5469 27.8486 7.9562 26.0317 5.8751 25.6802 L 5.8751 24.1489 L 14.6089 24.1489 L 37.4531 29.1519 L 37.4531 30.0308 C 37.4531 31.2466 38.4416 32.2363 39.6563 32.2363 C 40.8709 32.2363 41.8594 31.2466 41.8594 30.0308 L 41.8594 2.2056 C 41.8594 0.9897 40.8709 0 39.6563 0 ZM 4.4063 19.7944 L 1.4687 19.7944 L 1.4687 18.3237 L 2.9375 18.3237 L 2.9375 16.8535 L 1.4687 16.8535 L 1.4687 15.3828 L 2.9375 15.3828 L 2.9375 13.9126 L 1.4687 13.9126 L 1.4687 12.4421 L 4.4063 12.4421 L 4.4063 19.7944 ZM 13.9531 22.6782 L 5.8751 22.6782 L 5.8751 21.2646 L 5.8751 10.9717 L 5.8751 9.5579 L 13.9531 9.5579 L 13.9531 22.6782 ZM 33.0469 26.6816 L 15.4219 22.8218 L 15.4219 9.4146 L 33.0469 5.5547 L 33.0469 26.6816 ZM 37.4531 27.647 L 34.5156 27.0039 L 34.5156 5.2324 L 37.4531 4.5894 L 37.4531 27.647 ZM 40.3906 30.0308 C 40.3906 30.4365 40.0616 30.7659 39.6563 30.7659 C 39.2509 30.7659 38.9219 30.4365 38.9219 30.0308 L 38.9219 29.4731 L 38.9219 2.7632 L 38.9219 2.2056 C 38.9219 1.8005 39.2509 1.4707 39.6563 1.4707 C 40.0616 1.4707 40.3906 1.8005 40.3906 2.2056 L 40.3906 30.0308 ZM 47 16.1182 C 47 18.145 45.3528 19.7944 43.3281 19.7944 L 43.3281 18.3237 C 44.5428 18.3237 45.5313 17.3345 45.5313 16.1182 C 45.5313 14.9021 44.5428 13.9126 43.3281 13.9126 L 43.3281 12.4421 C 45.3528 12.4421 47 14.0911 47 16.1182 ZM 22.0313 16.8535 L 20.5625 16.8535 L 20.5625 15.3828 L 22.0313 15.3828 L 22.0313 16.8535 ZM 24.9688 16.8535 L 23.5 16.8535 L 23.5 15.3828 L 24.9688 15.3828 L 24.9688 16.8535 ZM 27.9063 16.8535 L 26.4375 16.8535 L 26.4375 15.3828 L 27.9063 15.3828 L 27.9063 16.8535 Z" fill="#ffffff"/>		<path d="M 41.4084 13.938 L 43.3281 13.938 L 43.3281 12.4421 L 41.4084 12.4421 L 41.4084 13.938 Z" fill="#ffffff"/>		<path d="M 41.2273 19.7944 L 43.3281 19.7944 L 43.3281 18.3237 L 41.2273 18.3237 L 41.2273 19.7944 Z" fill="#ffffff"/>	</g></svg>