<?xml version="1.0" standalone="no"?><!-- Generator: Adobe Fireworks CS6, Export SVG Extension by Aaron Beall (http://fireworks.abeall.com) . Version: 0.6.1  --><!DOCTYPE svg PUBLIC "-//W3C//DTD SVG 1.1//EN" "http://www.w3.org/Graphics/SVG/1.1/DTD/svg11.dtd"><svg id="Untitled-Page%201" viewBox="0 0 176 71" style="background-color:#ffffff00" version="1.1"	xmlns="http://www.w3.org/2000/svg" xmlns:xlink="http://www.w3.org/1999/xlink" xml:space="preserve"	x="0px" y="0px" width="176px" height="71px">	<g id="Layer%201">		<g>			<g>				<g>					<path d="M 20.1112 28.3692 C 20.1112 27.3945 19.9757 26.4325 19.7014 25.4785 C 19.4304 24.5257 18.9841 23.6635 18.3601 22.9047 C 17.7362 22.1447 16.9324 21.5368 15.9555 21.0851 C 14.9798 20.6316 13.8037 20.4043 12.4249 20.4043 C 9.7049 20.4043 7.6009 21.612 6.1163 24.0309 C 4.6225 26.452 3.8824 29.88 3.8824 34.3331 C 3.8824 38.8121 4.6453 42.2561 6.18 44.6555 C 7.7079 47.0617 9.8848 48.2625 12.6902 48.2625 C 15.532 48.2625 18.4034 46.9905 21.3113 44.4465 C 22.3006 45.0274 22.969 45.8333 23.3196 46.8596 C 21.9784 48.2441 20.3276 49.3646 18.3681 50.2141 C 16.3996 51.0682 14.3183 51.4976 12.1164 51.4976 C 9.9759 51.4976 8.1383 51.0545 6.6104 50.1682 C 5.0756 49.2819 3.8255 48.0673 2.8498 46.5244 C 1.874 44.9792 1.1556 43.1837 0.6968 41.1402 C 0.23 39.0991 0 36.9156 0 34.5983 C 0 31.7329 0.3165 29.221 0.9632 27.0651 C 1.6008 24.9091 2.4775 23.1136 3.5887 21.6826 C 4.709 20.2516 6.0161 19.1748 7.5224 18.4469 C 9.0218 17.7237 10.6294 17.3598 12.3532 17.3598 C 14.0747 17.3598 15.6402 17.6187 17.0463 18.1335 C 18.4535 18.6501 19.6456 19.3252 20.6361 20.1609 C 21.6255 20.999 22.3951 21.9679 22.9325 23.0597 C 23.4768 24.1526 23.7512 25.2822 23.7512 26.4405 C 23.7512 27.887 23.076 28.6103 21.7188 28.6103 C 21.2748 28.6103 20.742 28.5311 20.1112 28.3692 Z" fill="#ffffff"/>					<path d="M 44.9816 40.1507 L 30.1395 40.1507 C 30.2966 45.6244 32.3574 48.3589 36.3127 48.3589 C 38.4873 48.3589 40.7986 47.6816 43.2601 46.327 C 43.9637 46.9721 44.3941 47.7941 44.5512 48.7929 C 41.9325 50.593 38.9951 51.4976 35.7377 51.4976 C 34.0789 51.4976 32.658 51.1807 31.4807 50.5562 C 30.2966 49.9248 29.3357 49.0569 28.582 47.948 C 27.8351 46.8367 27.2818 45.5257 26.9311 44.0126 C 26.5793 42.4995 26.4074 40.8441 26.4074 39.0417 C 26.4074 37.2049 26.6214 35.5288 27.0529 34.0174 C 27.4822 32.5043 28.1084 31.2025 28.9395 30.1096 C 29.7729 29.0132 30.7703 28.1591 31.9327 27.5472 C 33.0952 26.9388 34.4318 26.6317 35.9301 26.6317 C 37.4023 26.6317 38.7173 26.8963 39.8786 27.4278 C 41.049 27.9605 42.0168 28.6838 42.8001 29.5987 C 43.5823 30.5183 44.1869 31.6112 44.6013 32.8832 C 45.0112 34.154 45.2184 35.515 45.2184 36.9638 C 45.2184 37.5424 45.1979 38.098 45.1478 38.6284 C 45.0966 39.1611 45.0476 39.6662 44.9816 40.1507 ZM 30.1395 37.3954 L 41.5796 37.3954 L 41.5796 36.7709 C 41.5796 34.5501 41.1219 32.7615 40.202 31.4137 C 39.2752 30.0597 37.8907 29.3863 36.0531 29.3863 C 34.236 29.3863 32.831 30.1096 31.8337 31.5561 C 30.8283 33.0026 30.2693 34.9519 30.1395 37.3954 Z" fill="#ffffff"/>					<path d="M 49.2169 28.9019 C 49.439 28.0661 49.9502 27.3877 50.746 26.8751 C 52.5324 27.5472 53.68 28.9805 54.1912 31.1692 C 55.504 28.3359 57.6433 26.9204 60.6081 26.9204 C 61.2832 26.9204 62.0142 26.987 62.8112 27.1133 C 62.8112 28.5001 62.5379 29.6251 62.0005 30.4919 C 61.6134 30.4632 61.0601 30.446 60.32 30.446 C 57.7378 30.446 55.7909 31.912 54.4793 34.8394 L 54.4793 50.9167 C 54.0034 51.0085 53.4091 51.0614 52.7054 51.0614 C 52.0087 51.0614 51.4212 51.0085 50.9384 50.9167 L 50.9384 33.8246 C 50.9384 31.6376 50.3669 29.9948 49.2169 28.9019 Z" fill="#ffffff"/>					<path d="M 75.3579 47.8263 L 81.7747 27.2109 C 82.2848 27.0846 82.7584 27.0203 83.1888 27.0203 C 83.6192 27.0203 84.2158 27.1133 84.9831 27.3084 L 85.0765 27.4542 C 82.1413 36.6584 79.5204 44.4787 77.2228 50.9167 C 76.5853 51.0774 75.8179 51.1555 74.9275 51.1555 C 74.0304 51.1555 73.4201 51.02 73.0831 50.7468 C 72.7449 50.4736 72.4068 49.8399 72.0561 48.8388 L 64.922 27.5002 C 65.7463 27.0846 66.4647 26.8751 67.0761 26.8751 C 68.0006 26.8751 68.5904 27.3406 68.8477 28.2705 L 72.6732 39.7649 C 73.6353 42.7888 74.3833 45.3466 74.9275 47.4382 C 74.9913 47.6954 75.1347 47.8263 75.3579 47.8263 Z" fill="#ffffff"/>					<path d="M 93.9327 30.5435 L 93.9327 50.9167 C 93.4522 51.0085 92.8647 51.0614 92.1611 51.0614 C 91.4643 51.0614 90.87 51.0085 90.3895 50.9167 L 90.3895 32.2793 C 90.3895 31.3793 90.2438 30.7685 89.966 30.446 C 89.67 30.1234 89.1622 29.9638 88.4284 29.9638 L 87.998 29.9638 C 87.8682 29.6102 87.8045 29.1768 87.8045 28.6585 C 87.8045 28.1442 87.8682 27.693 87.998 27.3084 C 88.6014 27.2442 89.0961 27.1845 89.4855 27.1397 C 89.8658 27.0915 90.1664 27.0651 90.3895 27.0651 L 90.7766 27.0651 C 91.7672 27.0651 92.5345 27.3808 93.0947 28.0064 C 93.6549 28.6373 93.9327 29.4793 93.9327 30.5435 Z" fill="#ffffff"/>					<path d="M 112.4158 27.2109 C 112.5182 27.693 112.5592 28.1511 112.5592 28.5862 C 112.5592 29.0213 112.5182 29.4793 112.4158 29.9638 L 106.3382 29.9144 L 106.3382 45.2409 C 106.3382 46.8642 107.873 48.1638 109.114 48.1638 L 111.8419 48.1638 C 112.0651 48.7079 112.179 49.259 112.179 49.8054 C 112.179 50.3519 112.1448 50.6917 112.0788 50.818 C 110.6146 51.0085 109.8336 51.1096 108.2692 51.1096 C 104.5416 51.1096 102.893 47.8263 102.893 45.156 L 102.893 29.9144 L 99.4888 29.9638 C 99.3954 29.4793 99.3476 29.0213 99.3476 28.5862 C 99.3476 28.1511 99.3954 27.693 99.4888 27.2109 L 102.893 27.2591 L 102.893 22.1929 C 102.893 21.3193 103.0137 20.7005 103.2733 20.3308 C 103.5306 19.9635 104.0202 19.7746 104.7579 19.7746 L 106.049 19.7746 L 106.3382 20.0633 L 106.3382 27.3084 L 112.4158 27.2109 Z" fill="#ffffff"/>					<path d="M 128.8541 27.2109 C 128.9543 27.693 128.9975 28.1511 128.9975 28.5862 C 128.9975 29.0213 128.9543 29.4793 128.8541 29.9638 L 122.7742 29.9144 L 122.7742 45.2409 C 122.7742 46.8642 124.309 48.1638 125.5591 48.1638 L 128.2802 48.1638 C 128.5011 48.7079 128.6172 49.259 128.6172 49.8054 C 128.6172 50.3519 128.5808 50.6917 128.5239 50.818 C 127.0529 51.0085 126.2696 51.1096 124.7052 51.1096 C 120.9799 51.1096 119.329 47.8263 119.329 45.156 L 119.329 29.9144 L 115.927 29.9638 C 115.8337 29.4793 115.7836 29.0213 115.7836 28.5862 C 115.7836 28.1511 115.8337 27.693 115.927 27.2109 L 119.329 27.2591 L 119.329 22.1929 C 119.329 21.3193 119.4588 20.7005 119.7093 20.3308 C 119.9666 19.9635 120.463 19.7746 121.1962 19.7746 L 122.4873 19.7746 L 122.7742 20.0633 L 122.7742 27.3084 L 128.8541 27.2109 Z" fill="#ffffff"/>				</g>				<g>					<path d="M 90.87 24.0986 C 88.5047 24.0986 86.5805 22.1585 86.5805 19.7746 C 86.5805 17.3896 88.5047 15.4495 90.87 15.4495 C 93.2336 15.4495 95.1555 17.3896 95.1555 19.7746 C 95.1555 22.1585 93.2336 24.0986 90.87 24.0986 ZM 90.87 17.858 C 89.8214 17.858 88.9686 18.7179 88.9686 19.7746 C 88.9686 20.8302 89.8214 21.6901 90.87 21.6901 C 91.9152 21.6901 92.7668 20.8302 92.7668 19.7746 C 92.7668 18.7179 91.9152 17.858 90.87 17.858 Z" fill="#ffffff"/>				</g>			</g>			<g>				<g>					<g>						<path d="M 152.6428 20.7418 C 152.4879 20.7418 152.3342 20.6821 152.217 20.5639 C 151.9801 20.3262 151.9801 19.9405 152.217 19.7029 L 166.4556 5.3539 C 166.6901 5.1151 167.0727 5.1174 167.3095 5.3539 C 167.544 5.5915 167.544 5.9773 167.3095 6.2149 L 153.0709 20.5639 C 152.9525 20.6833 152.7976 20.7418 152.6428 20.7418 Z" fill="#ffffff"/>					</g>					<g>						<path d="M 163.7982 16.7192 C 163.7777 16.7192 163.755 16.718 163.7333 16.7158 L 157.2755 16.0063 C 156.9442 15.9695 156.7051 15.6699 156.7415 15.3358 C 156.7757 15.0006 157.0694 14.7492 157.4064 14.7963 L 163.5762 15.4736 L 165.4138 13.6196 C 165.6495 13.3842 166.0321 13.3796 166.2677 13.6196 C 166.5034 13.8572 166.5034 14.2429 166.2677 14.4806 L 164.2263 16.5418 C 164.1125 16.6561 163.9576 16.7192 163.7982 16.7192 Z" fill="#ffffff"/>					</g>					<g>						<path d="M 154.8766 18.4906 C 154.5442 18.4906 154.2732 18.2185 154.2732 17.8821 L 154.2732 8.713 C 154.2732 8.5511 154.3369 8.3961 154.4508 8.2825 L 158.6361 4.0624 C 158.8717 3.8236 159.2543 3.8259 159.49 4.0624 C 159.7257 4.3 159.7257 4.6863 159.49 4.9234 L 155.4812 8.9655 L 155.4812 17.8821 C 155.4812 18.2185 155.2113 18.4906 154.8766 18.4906 Z" fill="#ffffff"/>					</g>					<g>						<path d="M 147.3827 62.9134 C 147.3178 62.9134 147.2529 62.9042 147.1869 62.8813 C 146.8727 62.7734 146.7041 62.4267 146.8112 62.1098 L 154.8345 38.4332 C 154.9426 38.1141 155.2865 37.9465 155.6007 38.0544 C 155.9172 38.1623 156.0857 38.509 155.9776 38.8259 L 147.9543 62.5024 C 147.8677 62.755 147.6332 62.9134 147.3827 62.9134 Z" fill="#ffffff"/>					</g>					<g>						<path d="M 167.2435 37.0786 L 158.4163 37.0786 C 158.0827 37.0786 157.8118 36.8077 157.8118 36.4701 C 157.8118 36.1349 158.0827 35.8617 158.4163 35.8617 L 167.2435 35.8617 C 167.5771 35.8617 167.8469 36.1349 167.8469 36.4701 C 167.8469 36.8077 167.5771 37.0786 167.2435 37.0786 Z" fill="#ffffff"/>					</g>					<g>						<path d="M 171.0063 35.0024 C 170.8777 35.0024 170.7468 34.9611 170.6363 34.875 C 170.3733 34.6695 170.3255 34.2872 170.5293 34.0209 L 171.324 32.9888 C 171.5289 32.7225 171.9069 32.6742 172.1711 32.8809 C 172.4341 33.0864 172.4819 33.4687 172.2781 33.735 L 171.4834 34.7671 C 171.365 34.922 171.1874 35.0024 171.0063 35.0024 Z" fill="#ffffff"/>					</g>					<g>						<path d="M 171.1316 31.0062 C 171.0223 31.0062 170.9118 30.9763 170.8117 30.9143 L 159.2372 23.6141 C 158.9537 23.4351 158.8683 23.0597 159.0448 22.7749 C 159.2213 22.4902 159.5947 22.4053 159.8771 22.5809 L 171.4515 29.8811 C 171.735 30.0608 171.8204 30.4356 171.6439 30.7203 C 171.5289 30.9052 171.3331 31.0062 171.1316 31.0062 Z" fill="#ffffff"/>					</g>					<g>						<path d="M 155.4185 22.4615 C 155.4163 22.4615 155.4129 22.4615 155.4094 22.4615 L 153.4124 22.4317 C 153.0788 22.4271 152.8124 22.1504 152.8181 21.8141 C 152.8227 21.4811 153.0914 21.2148 153.4216 21.2148 C 153.4238 21.2148 153.4261 21.2148 153.4307 21.2148 L 155.4277 21.2447 C 155.7601 21.2492 156.0265 21.5259 156.022 21.8623 C 156.0174 22.1952 155.7487 22.4615 155.4185 22.4615 Z" fill="#ffffff"/>					</g>					<g>						<path d="M 137.3544 36.8742 C 137.2041 36.8742 137.0538 36.8191 136.9366 36.7043 C 136.6964 36.4724 136.6895 36.0867 136.9195 35.8433 L 149.1133 23.0556 C 149.3456 22.814 149.7281 22.8059 149.9672 23.039 C 150.2074 23.272 150.2154 23.6566 149.9843 23.9 L 137.7905 36.6883 C 137.6709 36.8122 137.5138 36.8742 137.3544 36.8742 Z" fill="#ffffff"/>					</g>				</g>				<g>					<path d="M 167.3243 15.2142 C 166.5535 15.2142 165.8282 14.9099 165.2806 14.3589 C 164.741 13.817 164.4438 13.0938 164.4438 12.3235 C 164.4449 11.5463 164.7466 10.815 165.2966 10.2639 C 166.3748 9.1676 168.2659 9.1607 169.3521 10.257 C 170.4758 11.3913 170.4792 13.2327 169.3589 14.3623 C 168.8147 14.9111 168.0928 15.2142 167.3243 15.2142 ZM 167.3277 10.6279 C 166.8837 10.6279 166.4658 10.8035 166.1505 11.1249 C 165.8271 11.4475 165.6518 11.8734 165.6518 12.3235 C 165.6518 12.7683 165.8226 13.1845 166.1345 13.4967 C 166.7721 14.1413 167.8719 14.1413 168.5038 13.503 C 169.1539 12.8458 169.1517 11.777 168.4981 11.118 C 168.1839 10.8012 167.7695 10.6279 167.3277 10.6279 Z" fill="#ffffff"/>				</g>				<g>					<path d="M 168.4765 7.0529 C 167.7091 7.0529 166.9862 6.7487 166.4385 6.1977 C 165.3205 5.0703 165.3239 3.2324 166.4465 2.0993 C 167.5418 1.0029 169.4204 1.0029 170.5088 2.0947 C 171.6314 3.2324 171.6314 5.0726 170.5122 6.1977 C 169.9669 6.7487 169.2428 7.0529 168.4765 7.0529 ZM 168.4822 2.4666 C 168.0382 2.4666 167.6169 2.6423 167.2981 2.9614 C 166.6491 3.6181 166.6446 4.6846 167.2913 5.3367 C 167.9289 5.9784 169.0219 5.9807 169.6595 5.3367 C 170.3084 4.6835 170.3062 3.6158 169.6549 2.9557 C 169.3407 2.6411 168.924 2.4666 168.4822 2.4666 Z" fill="#ffffff"/>				</g>				<g>					<path d="M 160.6581 5.7752 L 160.6581 5.7752 C 159.893 5.7752 159.1735 5.4716 158.6327 4.9199 C 157.5112 3.7926 157.5066 1.9546 158.6236 0.825 C 159.72 -0.276 161.6065 -0.2737 162.6938 0.8238 C 163.2381 1.3691 163.5387 2.0935 163.5398 2.8627 C 163.5409 3.6365 163.2403 4.3678 162.6916 4.9222 C 162.1451 5.4721 161.4232 5.7752 160.6581 5.7752 ZM 160.6604 1.1901 C 160.2164 1.1901 159.7951 1.3657 159.4763 1.686 C 158.8319 2.3381 158.8353 3.4046 159.4877 4.0612 C 160.1207 4.703 161.2023 4.7007 161.8377 4.0612 C 162.1564 3.7386 162.3329 3.3127 162.3318 2.865 C 162.3318 2.4219 162.1576 2.0028 161.8422 1.686 C 161.5234 1.3657 161.1044 1.1901 160.6604 1.1901 Z" fill="#ffffff"/>				</g>				<g>					<g>						<path d="M 156.1381 39.3677 C 154.5567 39.3677 153.2701 38.0682 153.2701 36.4701 C 153.2701 34.8727 154.5567 33.572 156.1381 33.572 C 157.7275 33.572 159.0209 34.8727 159.0209 36.4701 C 159.0209 38.0682 157.7275 39.3677 156.1381 39.3677 ZM 156.1381 34.7889 C 155.2227 34.7889 154.4781 35.5425 154.4781 36.4701 C 154.4781 37.3977 155.2227 38.1508 156.1381 38.1508 C 157.0615 38.1508 157.8129 37.3977 157.8129 36.4701 C 157.8129 35.5425 157.0615 34.7889 156.1381 34.7889 Z" fill="#ffffff"/>					</g>					<g>						<path d="M 134.7244 36.4633 C 134.7244 37.7307 135.7354 38.7593 136.9924 38.7593 C 138.2448 38.7593 139.2717 37.7307 139.2717 36.4633 C 139.2717 35.1976 138.2448 34.1753 136.9924 34.1753 C 135.7354 34.1753 134.7244 35.1976 134.7244 36.4633 Z" fill="#ffffff"/>					</g>					<g>						<path d="M 144.8415 64.601 C 144.8415 65.8661 145.8457 66.8901 147.1049 66.8901 C 148.3641 66.8901 149.3866 65.8661 149.3866 64.601 C 149.3866 63.3267 148.3641 62.305 147.1049 62.305 C 145.8457 62.305 144.8415 63.3267 144.8415 64.601 Z" fill="#ffffff"/>					</g>					<g>						<path d="M 151.1467 24.7507 C 149.5653 24.7507 148.2787 23.4511 148.2787 21.8531 C 148.2787 20.2528 149.5653 18.9509 151.1467 18.9509 C 152.7339 18.9509 154.025 20.2528 154.025 21.8531 C 154.025 23.4511 152.7339 24.7507 151.1467 24.7507 ZM 151.1467 20.1678 C 150.2154 20.1678 149.4867 20.9083 149.4867 21.8531 C 149.4867 22.7795 150.2314 23.5338 151.1467 23.5338 C 152.0678 23.5338 152.817 22.7795 152.817 21.8531 C 152.817 20.9244 152.0678 20.1678 151.1467 20.1678 Z" fill="#ffffff"/>					</g>					<g>						<path d="M 157.682 24.6887 C 156.1005 24.6887 154.814 23.388 154.814 21.79 C 154.814 20.1919 156.1005 18.8918 157.682 18.8918 C 159.2714 18.8918 160.5648 20.1919 160.5648 21.79 C 160.5648 23.388 159.2714 24.6887 157.682 24.6887 ZM 157.682 20.1081 C 156.7666 20.1081 156.022 20.8624 156.022 21.79 C 156.022 22.7175 156.7666 23.4718 157.682 23.4718 C 158.6053 23.4718 159.3568 22.7175 159.3568 21.79 C 159.3568 20.8624 158.6053 20.1081 157.682 20.1081 Z" fill="#ffffff"/>					</g>					<g>						<path d="M 173.1183 34.3974 C 171.5381 34.3974 170.2515 33.0973 170.2515 31.4987 C 170.2515 29.9007 171.5381 28.6011 173.1183 28.6011 C 174.7077 28.6011 176 29.9007 176 31.4987 C 176 33.0973 174.7077 34.3974 173.1183 34.3974 ZM 173.1183 29.818 C 172.203 29.818 171.4595 30.5722 171.4595 31.4987 C 171.4595 32.4412 172.1882 33.1805 173.1183 33.1805 C 174.0417 33.1805 174.792 32.4263 174.792 31.4987 C 174.792 30.5722 174.0417 29.818 173.1183 29.818 Z" fill="#ffffff"/>					</g>					<g>						<path d="M 169.4727 38.9797 C 167.8902 38.9797 166.6036 37.6801 166.6036 36.0821 C 166.6036 34.4824 167.8902 33.1805 169.4727 33.1805 C 171.0621 33.1805 172.3555 34.4824 172.3555 36.0821 C 172.3555 37.6801 171.0621 38.9797 169.4727 38.9797 ZM 169.4727 34.3974 C 168.5562 34.3974 167.8116 35.1545 167.8116 36.0821 C 167.8116 37.0097 168.5562 37.7628 169.4727 37.7628 C 170.3961 37.7628 171.1475 37.0097 171.1475 36.0821 C 171.1475 35.1545 170.3961 34.3974 169.4727 34.3974 Z" fill="#ffffff"/>					</g>				</g>			</g>			<g>				<path d="M 1.1812 61.2947 C 1.6748 61.2121 2.3204 61.1409 3.1424 61.1409 C 4.1523 61.1409 4.8918 61.3774 5.3614 61.8044 C 5.7958 62.1833 6.0542 62.7642 6.0542 63.4736 C 6.0542 64.1946 5.843 64.764 5.4434 65.1773 C 4.9037 65.7582 4.023 66.0544 3.0251 66.0544 C 2.7194 66.0544 2.4376 66.0429 2.2031 65.9832 L 2.2031 69.1793 L 1.1812 69.1793 L 1.1812 61.2947 ZM 2.2031 65.1429 C 2.4262 65.2025 2.708 65.2255 3.0485 65.2255 C 4.2815 65.2255 5.0329 64.6217 5.0329 63.5219 C 5.0329 62.468 4.2929 61.9583 3.1657 61.9583 C 2.7194 61.9583 2.379 61.9927 2.2031 62.0409 L 2.2031 65.1429 Z" fill="#ffffff"/>				<path d="M 7.2019 65.237 C 7.2019 64.562 7.1899 63.9834 7.1546 63.4507 L 8.0586 63.4507 L 8.0939 64.5734 L 8.1412 64.5734 C 8.399 63.8043 9.0212 63.3198 9.7141 63.3198 C 9.8319 63.3198 9.9139 63.3313 10.0078 63.3542 L 10.0078 64.3369 C 9.9019 64.314 9.7966 64.3025 9.6554 64.3025 C 8.9279 64.3025 8.411 64.8581 8.2698 65.6411 C 8.2465 65.7811 8.2231 65.9488 8.2231 66.1255 L 8.2231 69.1793 L 7.2019 69.1793 L 7.2019 65.237 Z" fill="#ffffff"/>				<path d="M 16.0643 66.2679 C 16.0643 68.3871 14.6087 69.3101 13.235 69.3101 C 11.6968 69.3101 10.511 68.1736 10.511 66.362 C 10.511 64.4449 11.7555 63.3198 13.3289 63.3198 C 14.961 63.3198 16.0643 64.516 16.0643 66.2679 ZM 11.5556 66.3276 C 11.5556 67.5812 12.2718 68.5295 13.2817 68.5295 C 14.2682 68.5295 15.0077 67.5927 15.0077 66.3023 C 15.0077 65.3311 14.5261 64.1005 13.3056 64.1005 C 12.0839 64.1005 11.5556 65.237 11.5556 66.3276 Z" fill="#ffffff"/>				<path d="M 22.2728 60.7735 L 22.2728 67.7006 C 22.2728 68.208 22.2841 68.7889 22.3194 69.1793 L 21.3921 69.1793 L 21.3448 68.1851 L 21.3215 68.1851 C 21.0044 68.8257 20.3122 69.3101 19.3843 69.3101 C 18.0106 69.3101 16.954 68.1392 16.954 66.3988 C 16.9421 64.4908 18.1165 63.3198 19.5015 63.3198 C 20.3708 63.3198 20.9577 63.7331 21.2162 64.1946 L 21.2395 64.1946 L 21.2395 60.7735 L 22.2728 60.7735 ZM 21.2395 65.7811 C 21.2395 65.6526 21.2276 65.4735 21.1923 65.3449 C 21.0397 64.6814 20.4761 64.1372 19.7014 64.1372 C 18.6328 64.1372 17.9987 65.0832 17.9987 66.3506 C 17.9987 67.51 18.5622 68.4698 19.678 68.4698 C 20.3708 68.4698 21.0044 68.0083 21.1923 67.2253 C 21.2276 67.0853 21.2395 66.9429 21.2395 66.7776 L 21.2395 65.7811 Z" fill="#ffffff"/>				<path d="M 28.7391 67.618 C 28.7391 68.208 28.7505 68.7292 28.7858 69.1793 L 27.8698 69.1793 L 27.8112 68.2448 L 27.7879 68.2448 C 27.518 68.7063 26.9191 69.3101 25.9093 69.3101 C 25.0172 69.3101 23.9487 68.8119 23.9487 66.8006 L 23.9487 63.4507 L 24.9819 63.4507 L 24.9819 66.6238 C 24.9819 67.7121 25.3104 68.4468 26.2497 68.4468 C 26.9425 68.4468 27.4241 67.9601 27.612 67.4986 C 27.6706 67.3447 27.7059 67.1565 27.7059 66.9659 L 27.7059 63.4507 L 28.7391 63.4507 L 28.7391 67.618 Z" fill="#ffffff"/>				<path d="M 34.5007 68.9657 C 34.2309 69.1081 33.632 69.2986 32.8686 69.2986 C 31.1545 69.2986 30.0393 68.1254 30.0393 66.3735 C 30.0393 64.6102 31.2365 63.3313 33.0918 63.3313 C 33.7026 63.3313 34.2423 63.4851 34.5246 63.6275 L 34.2895 64.4334 C 34.043 64.291 33.6553 64.1602 33.0918 64.1602 C 31.7887 64.1602 31.0839 65.1314 31.0839 66.3276 C 31.0839 67.6524 31.9293 68.4698 33.0565 68.4698 C 33.644 68.4698 34.0311 68.3159 34.3248 68.1851 L 34.5007 68.9657 Z" fill="#ffffff"/>				<path d="M 37.1051 61.8044 L 37.1051 63.4507 L 38.5847 63.4507 L 38.5847 64.2428 L 37.1051 64.2428 L 37.1051 67.3333 C 37.1051 68.0427 37.3049 68.4468 37.8799 68.4468 C 38.1497 68.4468 38.3496 68.4101 38.4788 68.3756 L 38.5255 69.1563 C 38.3262 69.239 38.0091 69.2986 37.6101 69.2986 C 37.1285 69.2986 36.7414 69.1448 36.4943 68.8601 C 36.2011 68.5524 36.0952 68.0427 36.0952 67.3677 L 36.0952 64.2428 L 35.2146 64.2428 L 35.2146 63.4507 L 36.0952 63.4507 L 36.0952 62.0777 L 37.1051 61.8044 Z" fill="#ffffff"/>				<path d="M 39.6042 68.1139 C 39.9094 68.3159 40.4496 68.5295 40.9665 68.5295 C 41.7179 68.5295 42.0697 68.1506 42.0697 67.6754 C 42.0697 67.1794 41.7766 66.9062 41.0132 66.6238 C 39.9919 66.2564 39.5103 65.687 39.5103 65.0005 C 39.5103 64.0775 40.2504 63.3198 41.4709 63.3198 C 42.0464 63.3198 42.5513 63.4851 42.8684 63.6757 L 42.61 64.4334 C 42.3868 64.291 41.9758 64.1005 41.4475 64.1005 C 40.8373 64.1005 40.4968 64.4563 40.4968 64.8834 C 40.4968 65.3564 40.8373 65.5699 41.5768 65.8523 C 42.5633 66.2312 43.0682 66.7294 43.0682 67.5812 C 43.0682 68.5869 42.2929 69.2986 40.9426 69.2986 C 40.3204 69.2986 39.7454 69.1448 39.3458 68.9083 L 39.6042 68.1139 Z" fill="#ffffff"/>				<path opacity="0.251" d="M 47.8194 59.1617 L 47.8194 71 L 47.0327 71 L 47.0327 59.1617 L 47.8194 59.1617 Z" fill="#ffffff"/>				<path d="M 52.2085 69.1793 L 52.2085 61.2006 L 53.3237 61.2006 L 55.8598 65.237 C 56.4467 66.1738 56.905 67.0141 57.2807 67.8292 L 57.304 67.8177 C 57.2101 66.7524 57.1862 65.7811 57.1862 64.539 L 57.1862 61.2006 L 58.1494 61.2006 L 58.1494 69.1793 L 57.1162 69.1793 L 54.6034 65.1314 C 54.0518 64.2428 53.5235 63.3313 53.1239 62.468 L 53.0886 62.4795 C 53.1478 63.4851 53.1711 64.4449 53.1711 65.7697 L 53.1711 69.1793 L 52.2085 69.1793 Z" fill="#ffffff"/>				<path d="M 60.4703 66.5044 C 60.4937 67.9141 61.3863 68.4927 62.4195 68.4927 C 63.159 68.4927 63.6053 68.3619 63.993 68.1966 L 64.1689 68.9428 C 63.8051 69.1081 63.1829 69.2986 62.2789 69.2986 C 60.5289 69.2986 59.4843 68.1392 59.4843 66.4103 C 59.4843 64.6814 60.4937 63.3198 62.1497 63.3198 C 64.0043 63.3198 64.4979 64.9661 64.4979 66.0199 C 64.4979 66.2312 64.474 66.3988 64.4626 66.5044 L 60.4703 66.5044 ZM 63.4994 65.7582 C 63.5114 65.0946 63.2296 64.066 62.0671 64.066 C 61.0225 64.066 60.5642 65.0372 60.4823 65.7582 L 63.4994 65.7582 Z" fill="#ffffff"/>				<path d="M 67.0192 61.8044 L 67.0192 63.4507 L 68.4987 63.4507 L 68.4987 64.2428 L 67.0192 64.2428 L 67.0192 67.3333 C 67.0192 68.0427 67.219 68.4468 67.794 68.4468 C 68.0638 68.4468 68.2636 68.4101 68.3929 68.3756 L 68.4395 69.1563 C 68.2403 69.239 67.9232 69.2986 67.5242 69.2986 C 67.0425 69.2986 66.6554 69.1448 66.4084 68.8601 C 66.1152 68.5524 66.0093 68.0427 66.0093 67.3677 L 66.0093 64.2428 L 65.1287 64.2428 L 65.1287 63.4507 L 66.0093 63.4507 L 66.0093 62.0777 L 67.0192 61.8044 Z" fill="#ffffff"/>				<path d="M 70.1758 63.4507 L 70.9273 66.362 C 71.0912 67.0026 71.2438 67.5927 71.3497 68.1851 L 71.385 68.1851 C 71.5142 67.6042 71.702 66.9889 71.8899 66.3735 L 72.8172 63.4507 L 73.686 63.4507 L 74.5666 66.3138 C 74.7778 67.0026 74.9423 67.6042 75.0716 68.1851 L 75.1068 68.1851 C 75.2008 67.6042 75.3533 67.0026 75.5412 66.3276 L 76.3513 63.4507 L 77.3731 63.4507 L 75.5412 69.1793 L 74.6019 69.1793 L 73.7332 66.4447 C 73.5334 65.8064 73.3694 65.237 73.2283 64.562 L 73.2049 64.562 C 73.0637 65.2485 72.8878 65.8408 72.688 66.4562 L 71.7721 69.1793 L 70.8328 69.1793 L 69.1187 63.4507 L 70.1758 63.4507 Z" fill="#ffffff"/>				<path d="M 83.4273 66.2679 C 83.4273 68.3871 81.9717 69.3101 80.598 69.3101 C 79.0599 69.3101 77.8741 68.1736 77.8741 66.362 C 77.8741 64.4449 79.1185 63.3198 80.692 63.3198 C 82.3241 63.3198 83.4273 64.516 83.4273 66.2679 ZM 78.9187 66.3276 C 78.9187 67.5812 79.6348 68.5295 80.6447 68.5295 C 81.6313 68.5295 82.3708 67.5927 82.3708 66.3023 C 82.3708 65.3311 81.8892 64.1005 80.6686 64.1005 C 79.447 64.1005 78.9187 65.237 78.9187 66.3276 Z" fill="#ffffff"/>				<path d="M 84.7281 65.237 C 84.7281 64.562 84.7162 63.9834 84.6809 63.4507 L 85.5849 63.4507 L 85.6202 64.5734 L 85.6674 64.5734 C 85.9253 63.8043 86.5481 63.3198 87.2403 63.3198 C 87.3581 63.3198 87.4401 63.3313 87.534 63.3542 L 87.534 64.3369 C 87.4282 64.314 87.3229 64.3025 87.1817 64.3025 C 86.4536 64.3025 85.9372 64.8581 85.7966 65.6411 C 85.7727 65.7811 85.7494 65.9488 85.7494 66.1255 L 85.7494 69.1793 L 84.7281 69.1793 L 84.7281 65.237 Z" fill="#ffffff"/>				<path d="M 89.6335 66.0773 L 89.6574 66.0773 C 89.7986 65.8776 89.9979 65.6273 90.1618 65.4276 L 91.8298 63.4507 L 93.0742 63.4507 L 90.8791 65.8064 L 93.3793 69.1793 L 92.1235 69.1793 L 90.1618 66.4332 L 89.6335 67.0256 L 89.6335 69.1793 L 88.6128 69.1793 L 88.6128 60.7735 L 89.6335 60.7735 L 89.6335 66.0773 Z" fill="#ffffff"/>				<path opacity="0.251" d="M 97.543 59.1617 L 97.543 71 L 96.7563 71 L 96.7563 59.1617 L 97.543 59.1617 Z" fill="#ffffff"/>				<path d="M 101.7909 67.9256 C 102.2486 68.208 102.918 68.4468 103.6217 68.4468 C 104.6669 68.4468 105.2771 67.8889 105.2771 67.0853 C 105.2771 66.3391 104.8547 65.912 103.7856 65.4987 C 102.4945 65.0372 101.6964 64.3622 101.6964 63.2372 C 101.6964 61.9927 102.7177 61.0697 104.2558 61.0697 C 105.0653 61.0697 105.6528 61.2603 106.0058 61.46 L 105.7234 62.3004 C 105.4661 62.1603 104.9367 61.9215 104.2205 61.9215 C 103.1412 61.9215 102.729 62.5736 102.729 63.1178 C 102.729 63.864 103.2118 64.2313 104.3025 64.6584 C 105.6414 65.1773 106.3223 65.8294 106.3223 67.0026 C 106.3223 68.2333 105.4183 69.2986 103.5511 69.2986 C 102.7883 69.2986 101.9548 69.0736 101.5313 68.7889 L 101.7909 67.9256 Z" fill="#ffffff"/>				<path d="M 112.894 66.2679 C 112.894 68.3871 111.4389 69.3101 110.0658 69.3101 C 108.5265 69.3101 107.3413 68.1736 107.3413 66.362 C 107.3413 64.4449 108.5857 63.3198 110.1592 63.3198 C 111.7919 63.3198 112.894 64.516 112.894 66.2679 ZM 108.3853 66.3276 C 108.3853 67.5812 109.1026 68.5295 110.1114 68.5295 C 111.0985 68.5295 111.8374 67.5927 111.8374 66.3023 C 111.8374 65.3311 111.3569 64.1005 110.1353 64.1005 C 108.9147 64.1005 108.3853 65.237 108.3853 66.3276 Z" fill="#ffffff"/>				<path d="M 118.2451 68.9657 C 117.9764 69.1081 117.3775 69.2986 116.6136 69.2986 C 114.9001 69.2986 113.7843 68.1254 113.7843 66.3735 C 113.7843 64.6102 114.9821 63.3313 116.8367 63.3313 C 117.4481 63.3313 117.9878 63.4851 118.269 63.6275 L 118.0345 64.4334 C 117.7874 64.291 117.4003 64.1602 116.8367 64.1602 C 115.5331 64.1602 114.8295 65.1314 114.8295 66.3276 C 114.8295 67.6524 115.6743 68.4698 116.8014 68.4698 C 117.3889 68.4698 117.776 68.3159 118.0698 68.1851 L 118.2451 68.9657 Z" fill="#ffffff"/>				<path d="M 120.6042 61.8389 C 120.6156 62.1948 120.3571 62.4795 119.9461 62.4795 C 119.5818 62.4795 119.3245 62.1948 119.3245 61.8389 C 119.3245 61.4738 119.5932 61.1891 119.9689 61.1891 C 120.3571 61.1891 120.6042 61.4738 120.6042 61.8389 ZM 119.4531 69.1793 L 119.4531 63.4507 L 120.4858 63.4507 L 120.4858 69.1793 L 119.4531 69.1793 Z" fill="#ffffff"/>				<path d="M 125.3451 69.1793 L 125.2631 68.4583 L 125.2289 68.4583 C 124.9113 68.9083 124.301 69.3101 123.4904 69.3101 C 122.3393 69.3101 121.753 68.4927 121.753 67.6639 C 121.753 66.2794 122.9746 65.5217 125.1697 65.5332 L 125.1697 65.4161 C 125.1697 64.9408 125.0399 64.089 123.8786 64.089 C 123.3503 64.089 122.7982 64.2543 122.3985 64.516 L 122.164 63.8295 C 122.6331 63.5219 123.3139 63.3198 124.0312 63.3198 C 125.7686 63.3198 126.191 64.516 126.191 65.664 L 126.191 67.8062 C 126.191 68.3045 126.2149 68.7889 126.2855 69.1793 L 125.3451 69.1793 ZM 125.1925 66.2564 C 124.0654 66.2312 122.7856 66.4332 122.7856 67.5468 C 122.7856 68.2218 123.2319 68.541 123.7602 68.541 C 124.5003 68.541 124.9694 68.068 125.1344 67.5812 C 125.1697 67.4756 125.1925 67.3562 125.1925 67.2506 L 125.1925 66.2564 Z" fill="#ffffff"/>				<path d="M 127.8556 60.7735 L 128.8882 60.7735 L 128.8882 69.1793 L 127.8556 69.1793 L 127.8556 60.7735 Z" fill="#ffffff"/>			</g>		</g>	</g></svg>