<?xml version="1.0" standalone="no"?><!-- Generator: Adobe Fireworks CS6, Export SVG Extension by Aaron Beall (http://fireworks.abeall.com) . Version: 0.6.1  --><!DOCTYPE svg PUBLIC "-//W3C//DTD SVG 1.1//EN" "http://www.w3.org/Graphics/SVG/1.1/DTD/svg11.dtd"><svg id="Untitled-Page%201" viewBox="0 0 111 43" style="background-color:#ffffff00" version="1.1"	xmlns="http://www.w3.org/2000/svg" xmlns:xlink="http://www.w3.org/1999/xlink" xml:space="preserve"	x="0px" y="0px" width="111px" height="43px">	<g>		<g>			<path d="M 12.6838 17.9806 C 12.6838 17.3627 12.5984 16.7529 12.4253 16.1483 C 12.2544 15.5444 11.9729 14.998 11.5794 14.517 C 11.1859 14.0354 10.679 13.65 10.0629 13.3638 C 9.4475 13.0764 8.7057 12.9324 7.8362 12.9324 C 6.1207 12.9324 4.7938 13.6978 3.8574 15.231 C 2.9153 16.7654 2.4486 18.938 2.4486 21.7604 C 2.4486 24.5992 2.9297 26.782 3.8976 28.3027 C 4.8613 29.8278 6.2342 30.5889 8.0035 30.5889 C 9.7958 30.5889 11.6067 29.7827 13.4406 28.1704 C 14.0646 28.5386 14.4861 29.0493 14.7073 29.6998 C 13.8614 30.5773 12.8202 31.2874 11.5844 31.8258 C 10.3429 32.3672 9.0303 32.6393 7.6416 32.6393 C 6.2916 32.6393 5.1327 32.3585 4.169 31.7968 C 3.2011 31.235 2.4127 30.4652 1.7973 29.4873 C 1.1819 28.5079 0.7288 27.3699 0.4394 26.0748 C 0.1451 24.7811 0 23.3971 0 21.9285 C 0 20.1124 0.1996 18.5204 0.6075 17.1539 C 1.0096 15.7875 1.5625 14.6495 2.2633 13.7424 C 2.9699 12.8356 3.7942 12.1531 4.7442 11.6917 C 5.6899 11.2334 6.7038 11.0027 7.791 11.0027 C 8.8766 11.0027 9.864 11.1667 10.7508 11.4932 C 11.6383 11.8206 12.3901 12.2483 13.0148 12.778 C 13.6388 13.3093 14.1242 13.9233 14.4631 14.6154 C 14.8064 15.308 14.9794 16.024 14.9794 16.7581 C 14.9794 17.6749 14.5536 18.1333 13.6977 18.1333 C 13.4176 18.1333 13.0816 18.083 12.6838 17.9806 Z" fill="#ffffff"/>			<path d="M 28.369 25.4476 L 19.0085 25.4476 C 19.1075 28.9169 20.4072 30.65 22.9018 30.65 C 24.2732 30.65 25.7309 30.2207 27.2833 29.3622 C 27.7271 29.7711 27.9985 30.292 28.0976 30.925 C 26.4461 32.066 24.5935 32.6393 22.5391 32.6393 C 21.4929 32.6393 20.5968 32.4386 19.8543 32.0427 C 19.1075 31.6425 18.5015 31.0924 18.0262 30.3896 C 17.5551 29.6852 17.2061 28.8542 16.985 27.8953 C 16.7631 26.9363 16.6547 25.8871 16.6547 24.7448 C 16.6547 23.5806 16.7896 22.5182 17.0618 21.5603 C 17.3325 20.6013 17.7274 19.7762 18.2516 19.0836 C 18.7772 18.3885 19.4063 17.8474 20.1394 17.4595 C 20.8725 17.0739 21.7155 16.8793 22.6605 16.8793 C 23.5889 16.8793 24.4183 17.0469 25.1507 17.3839 C 25.8889 17.7214 26.4992 18.1798 26.9933 18.7598 C 27.4866 19.3427 27.8679 20.0352 28.1292 20.8416 C 28.3877 21.647 28.5184 22.5095 28.5184 23.4277 C 28.5184 23.7944 28.5055 24.1466 28.4739 24.4828 C 28.4416 24.8204 28.4107 25.1406 28.369 25.4476 ZM 19.0085 23.7014 L 26.2235 23.7014 L 26.2235 23.3055 C 26.2235 21.8979 25.9348 20.7643 25.3546 19.91 C 24.7701 19.052 23.897 18.6251 22.738 18.6251 C 21.592 18.6251 20.7059 19.0836 20.0769 20.0002 C 19.4429 20.9171 19.0903 22.1526 19.0085 23.7014 Z" fill="#ffffff"/>			<path d="M 31.0402 18.3181 C 31.1802 17.7885 31.5027 17.3584 32.0046 17.0336 C 33.1312 17.4595 33.855 18.3679 34.1774 19.7551 C 35.0053 17.9594 36.3546 17.0623 38.2244 17.0623 C 38.6502 17.0623 39.1112 17.1045 39.6138 17.1844 C 39.6138 18.0635 39.4415 18.7765 39.1026 19.3258 C 38.8584 19.3076 38.5095 19.2968 38.0427 19.2968 C 36.4142 19.2968 35.1863 20.226 34.3591 22.0813 L 34.3591 32.2711 C 34.059 32.3293 33.6841 32.3629 33.2404 32.3629 C 32.8009 32.3629 32.4304 32.3293 32.1259 32.2711 L 32.1259 21.4382 C 32.1259 20.052 31.7655 19.0107 31.0402 18.3181 Z" fill="#ffffff"/>			<path d="M 47.5269 30.3125 L 51.5738 17.2463 C 51.8955 17.1663 52.1942 17.1255 52.4657 17.1255 C 52.7371 17.1255 53.1134 17.1844 53.5973 17.3082 L 53.6562 17.4006 C 51.8051 23.2343 50.1521 28.1907 48.703 32.2711 C 48.3009 32.3729 47.817 32.4225 47.2554 32.4225 C 46.6896 32.4225 46.3047 32.3367 46.0922 32.1635 C 45.8789 31.9904 45.6656 31.5886 45.4445 30.9542 L 40.9451 17.4297 C 41.465 17.1663 41.9181 17.0336 42.3037 17.0336 C 42.8867 17.0336 43.2587 17.3285 43.421 17.918 L 45.8337 25.2031 C 46.4404 27.1196 46.9122 28.7407 47.2554 30.0665 C 47.2956 30.2295 47.3861 30.3125 47.5269 30.3125 Z" fill="#ffffff"/>			<path d="M 59.2416 19.3585 L 59.2416 32.2711 C 58.9386 32.3293 58.5681 32.3629 58.1243 32.3629 C 57.6849 32.3629 57.3101 32.3293 57.007 32.2711 L 57.007 20.4587 C 57.007 19.8882 56.9151 19.5012 56.7399 19.2968 C 56.5532 19.0923 56.233 18.9911 55.7702 18.9911 L 55.4987 18.9911 C 55.4169 18.7671 55.3767 18.4924 55.3767 18.1638 C 55.3767 17.8379 55.4169 17.5519 55.4987 17.3082 C 55.8793 17.2675 56.1913 17.2295 56.4369 17.2012 C 56.6767 17.1707 56.8663 17.1539 57.007 17.1539 L 57.2512 17.1539 C 57.8759 17.1539 58.3599 17.354 58.7131 17.7506 C 59.0664 18.1503 59.2416 18.6841 59.2416 19.3585 Z" fill="#ffffff"/>			<path d="M 70.8986 17.2463 C 70.9632 17.5519 70.989 17.8423 70.989 18.118 C 70.989 18.3938 70.9632 18.6841 70.8986 18.9911 L 67.0656 18.9598 L 67.0656 28.6738 C 67.0656 29.7028 68.0335 30.5264 68.8162 30.5264 L 70.5367 30.5264 C 70.6774 30.8711 70.7492 31.2205 70.7492 31.5668 C 70.7492 31.9132 70.7277 32.1285 70.686 32.2086 C 69.7626 32.3293 69.27 32.3934 68.2834 32.3934 C 65.9325 32.3934 64.8927 30.3125 64.8927 28.62 L 64.8927 18.9598 L 62.7458 18.9911 C 62.6869 18.6841 62.6567 18.3938 62.6567 18.118 C 62.6567 17.8423 62.6869 17.5519 62.7458 17.2463 L 64.8927 17.2769 L 64.8927 14.0659 C 64.8927 13.5122 64.9689 13.12 65.1326 12.8857 C 65.2949 12.653 65.6036 12.5332 66.0689 12.5332 L 66.8832 12.5332 L 67.0656 12.7162 L 67.0656 17.3082 L 70.8986 17.2463 Z" fill="#ffffff"/>			<path d="M 81.2659 17.2463 C 81.3291 17.5519 81.3564 17.8423 81.3564 18.118 C 81.3564 18.3938 81.3291 18.6841 81.2659 18.9911 L 77.4315 18.9598 L 77.4315 28.6738 C 77.4315 29.7028 78.3994 30.5264 79.1878 30.5264 L 80.904 30.5264 C 81.0433 30.8711 81.1166 31.2205 81.1166 31.5668 C 81.1166 31.9132 81.0936 32.1285 81.0576 32.2086 C 80.1299 32.3293 79.636 32.3934 78.6493 32.3934 C 76.2998 32.3934 75.2586 30.3125 75.2586 28.62 L 75.2586 18.9598 L 73.1131 18.9911 C 73.0542 18.6841 73.0226 18.3938 73.0226 18.118 C 73.0226 17.8423 73.0542 17.5519 73.1131 17.2463 L 75.2586 17.2769 L 75.2586 14.0659 C 75.2586 13.5122 75.3405 13.12 75.4985 12.8857 C 75.6608 12.653 75.9738 12.5332 76.4363 12.5332 L 77.2505 12.5332 L 77.4315 12.7162 L 77.4315 17.3082 L 81.2659 17.2463 Z" fill="#ffffff"/>		</g>		<g>			<path d="M 57.3101 15.2737 C 55.8183 15.2737 54.6047 14.0441 54.6047 12.5332 C 54.6047 11.0216 55.8183 9.7919 57.3101 9.7919 C 58.8007 9.7919 60.0128 11.0216 60.0128 12.5332 C 60.0128 14.0441 58.8007 15.2737 57.3101 15.2737 ZM 57.3101 11.3185 C 56.6487 11.3185 56.1109 11.8635 56.1109 12.5332 C 56.1109 13.2023 56.6487 13.7472 57.3101 13.7472 C 57.9692 13.7472 58.5063 13.2023 58.5063 12.5332 C 58.5063 11.8635 57.9692 11.3185 57.3101 11.3185 Z" fill="#ffffff"/>		</g>	</g>	<g>		<g>			<g>				<path d="M 96.269 13.1462 C 96.1714 13.1462 96.0744 13.1084 96.0005 13.0334 C 95.8511 12.8829 95.8511 12.6383 96.0005 12.4877 L 104.9805 3.3933 C 105.1284 3.2419 105.3697 3.2435 105.5191 3.3933 C 105.667 3.5439 105.667 3.7885 105.5191 3.9391 L 96.539 13.0334 C 96.4643 13.1091 96.3667 13.1462 96.269 13.1462 Z" fill="#ffffff"/>			</g>			<g>				<path d="M 103.3046 10.5968 C 103.2917 10.5968 103.2773 10.5958 103.2636 10.5945 L 99.1908 10.1448 C 98.9819 10.1215 98.8311 9.9316 98.854 9.72 C 98.8756 9.5074 99.0609 9.3481 99.2734 9.3779 L 103.1646 9.8073 L 104.3235 8.6322 C 104.4721 8.483 104.7134 8.48 104.862 8.6322 C 105.0107 8.7827 105.0107 9.0272 104.862 9.1779 L 103.5746 10.4843 C 103.5028 10.5566 103.4051 10.5968 103.3046 10.5968 Z" fill="#ffffff"/>			</g>			<g>				<path d="M 97.6779 11.7195 C 97.4682 11.7195 97.2973 11.547 97.2973 11.3337 L 97.2973 5.5222 C 97.2973 5.4198 97.3375 5.3214 97.4093 5.2495 L 100.0489 2.5747 C 100.1975 2.4233 100.4388 2.4249 100.5874 2.5747 C 100.7361 2.7253 100.7361 2.9702 100.5874 3.1205 L 98.0591 5.6825 L 98.0591 11.3337 C 98.0591 11.547 97.889 11.7195 97.6779 11.7195 Z" fill="#ffffff"/>			</g>			<g>				<path d="M 92.9516 39.8748 C 92.9106 39.8748 92.8698 39.8689 92.8281 39.8544 C 92.6299 39.7859 92.5237 39.5662 92.5911 39.3655 L 97.6513 24.3591 C 97.7195 24.1569 97.9364 24.0507 98.1346 24.119 C 98.3342 24.1874 98.4405 24.4071 98.3723 24.6079 L 93.3121 39.6141 C 93.2575 39.7744 93.1096 39.8748 92.9516 39.8748 Z" fill="#ffffff"/>			</g>			<g>				<path d="M 105.4774 23.5005 L 99.9103 23.5005 C 99.6999 23.5005 99.529 23.3289 99.529 23.1147 C 99.529 22.9025 99.6999 22.7292 99.9103 22.7292 L 105.4774 22.7292 C 105.6878 22.7292 105.858 22.9025 105.858 23.1147 C 105.858 23.3289 105.6878 23.5005 105.4774 23.5005 Z" fill="#ffffff"/>			</g>			<g>				<path d="M 107.8506 22.1847 C 107.7694 22.1847 107.6869 22.1584 107.6172 22.1039 C 107.4514 21.9735 107.4212 21.7314 107.5497 21.5625 L 108.0509 20.9084 C 108.1802 20.7395 108.4186 20.709 108.5852 20.84 C 108.751 20.9702 108.7812 21.2125 108.6526 21.3813 L 108.1515 22.0355 C 108.0768 22.1335 107.9648 22.1847 107.8506 22.1847 Z" fill="#ffffff"/>			</g>			<g>				<path d="M 107.9296 19.6519 C 107.8606 19.6519 107.791 19.6329 107.7278 19.5935 L 100.428 14.9667 C 100.2492 14.8531 100.1954 14.6154 100.3067 14.4348 C 100.418 14.2543 100.6535 14.2004 100.8316 14.3119 L 108.1314 18.9387 C 108.3102 19.0526 108.364 19.2903 108.2527 19.4706 C 108.1802 19.5878 108.0567 19.6519 107.9296 19.6519 Z" fill="#ffffff"/>			</g>			<g>				<path d="M 98.0197 14.2362 C 98.0182 14.2362 98.0161 14.2362 98.0139 14.2362 L 96.7545 14.2172 C 96.5441 14.2144 96.376 14.0389 96.3796 13.8258 C 96.3825 13.6147 96.5519 13.446 96.7602 13.446 C 96.7616 13.446 96.763 13.446 96.7659 13.446 L 98.0254 13.465 C 98.2351 13.4678 98.4031 13.6432 98.4002 13.8564 C 98.3974 14.0674 98.2279 14.2362 98.0197 14.2362 Z" fill="#ffffff"/>			</g>			<g>				<path d="M 86.6269 23.371 C 86.5322 23.371 86.4374 23.3361 86.3634 23.2633 C 86.2119 23.1163 86.2076 22.8718 86.3526 22.7177 L 94.043 14.6127 C 94.1895 14.4596 94.4308 14.4545 94.5816 14.6022 C 94.7331 14.7499 94.7381 14.9937 94.5924 15.1479 L 86.9019 23.2532 C 86.8266 23.3317 86.7275 23.371 86.6269 23.371 Z" fill="#ffffff"/>			</g>		</g>		<g>			<path d="M 105.5284 9.6427 C 105.0423 9.6427 104.5849 9.45 104.2395 9.1007 C 103.8991 8.7573 103.7117 8.2988 103.7117 7.8107 C 103.7124 7.3181 103.9027 6.8546 104.2495 6.5054 C 104.9295 5.8104 106.1222 5.806 106.8073 6.501 C 107.516 7.2197 107.5181 8.3868 106.8116 9.1028 C 106.4683 9.4508 106.0131 9.6427 105.5284 9.6427 ZM 105.5305 6.736 C 105.2505 6.736 104.987 6.8472 104.7881 7.051 C 104.5841 7.2555 104.4736 7.5254 104.4736 7.8107 C 104.4736 8.0927 104.5813 8.3563 104.778 8.5543 C 105.1801 8.9629 105.8738 8.9629 106.2723 8.5582 C 106.6823 8.1417 106.6809 7.4644 106.2687 7.0466 C 106.0705 6.8458 105.8091 6.736 105.5305 6.736 Z" fill="#ffffff"/>		</g>		<g>			<path d="M 106.2551 4.4702 C 105.7711 4.4702 105.3151 4.2775 104.9697 3.9281 C 104.2646 3.2136 104.2668 2.0487 104.9748 1.3306 C 105.6655 0.6356 106.8503 0.6356 107.5368 1.3276 C 108.2448 2.0487 108.2448 3.2151 107.539 3.9281 C 107.195 4.2775 106.7383 4.4702 106.2551 4.4702 ZM 106.2586 1.5634 C 105.9786 1.5634 105.7129 1.6748 105.5119 1.877 C 105.1026 2.2932 105.0997 2.969 105.5076 3.3823 C 105.9097 3.7891 106.599 3.7906 107.0011 3.3823 C 107.4104 2.9684 107.409 2.2917 106.9983 1.8733 C 106.8001 1.674 106.5373 1.5634 106.2586 1.5634 Z" fill="#ffffff"/>		</g>		<g>			<path d="M 101.3242 3.6604 L 101.3242 3.6604 C 100.8416 3.6604 100.3878 3.4678 100.0468 3.1183 C 99.3394 2.4038 99.3366 1.2388 100.041 0.5228 C 100.7325 -0.1749 101.9223 -0.1735 102.608 0.5222 C 102.9513 0.8678 103.1408 1.3268 103.1416 1.8145 C 103.1423 2.3048 102.9527 2.7683 102.6066 3.1196 C 102.2619 3.4683 101.8067 3.6604 101.3242 3.6604 ZM 101.3256 0.7542 C 101.0456 0.7542 100.7799 0.8656 100.5788 1.0686 C 100.1724 1.4818 100.1746 2.1578 100.586 2.5741 C 100.9852 2.9808 101.6674 2.9792 102.0681 2.5741 C 102.2691 2.3695 102.3805 2.0996 102.3797 1.8158 C 102.3797 1.535 102.2698 1.2694 102.071 1.0686 C 101.8699 0.8656 101.6056 0.7542 101.3256 0.7542 Z" fill="#ffffff"/>		</g>		<g>			<g>				<path d="M 98.4735 24.9514 C 97.4761 24.9514 96.6647 24.1277 96.6647 23.1147 C 96.6647 22.1024 97.4761 21.278 98.4735 21.278 C 99.4759 21.278 100.2916 22.1024 100.2916 23.1147 C 100.2916 24.1277 99.4759 24.9514 98.4735 24.9514 ZM 98.4735 22.0492 C 97.8961 22.0492 97.4265 22.527 97.4265 23.1147 C 97.4265 23.7028 97.8961 24.1802 98.4735 24.1802 C 99.0558 24.1802 99.5297 23.7028 99.5297 23.1147 C 99.5297 22.527 99.0558 22.0492 98.4735 22.0492 Z" fill="#ffffff"/>			</g>			<g>				<path d="M 84.9682 23.1105 C 84.9682 23.9138 85.6058 24.5658 86.3986 24.5658 C 87.1884 24.5658 87.8362 23.9138 87.8362 23.1105 C 87.8362 22.3083 87.1884 21.6604 86.3986 21.6604 C 85.6058 21.6604 84.9682 22.3083 84.9682 23.1105 Z" fill="#ffffff"/>			</g>			<g>				<path d="M 91.3489 40.9443 C 91.3489 41.7461 91.9822 42.3951 92.7764 42.3951 C 93.5706 42.3951 94.2154 41.7461 94.2154 40.9443 C 94.2154 40.1366 93.5706 39.489 92.7764 39.489 C 91.9822 39.489 91.3489 40.1366 91.3489 40.9443 Z" fill="#ffffff"/>			</g>			<g>				<path d="M 95.3255 15.687 C 94.3281 15.687 93.5167 14.8634 93.5167 13.8506 C 93.5167 12.8363 94.3281 12.0111 95.3255 12.0111 C 96.3265 12.0111 97.1407 12.8363 97.1407 13.8506 C 97.1407 14.8634 96.3265 15.687 95.3255 15.687 ZM 95.3255 12.7825 C 94.7381 12.7825 94.2786 13.2517 94.2786 13.8506 C 94.2786 14.4377 94.7482 14.9158 95.3255 14.9158 C 95.9064 14.9158 96.3789 14.4377 96.3789 13.8506 C 96.3789 13.262 95.9064 12.7825 95.3255 12.7825 Z" fill="#ffffff"/>			</g>			<g>				<path d="M 99.4472 15.6478 C 98.4498 15.6478 97.6383 14.8232 97.6383 13.8104 C 97.6383 12.7976 98.4498 11.9736 99.4472 11.9736 C 100.4496 11.9736 101.2653 12.7976 101.2653 13.8104 C 101.2653 14.8232 100.4496 15.6478 99.4472 15.6478 ZM 99.4472 12.7446 C 98.8698 12.7446 98.4002 13.2227 98.4002 13.8104 C 98.4002 14.3984 98.8698 14.8765 99.4472 14.8765 C 100.0295 14.8765 100.5034 14.3984 100.5034 13.8104 C 100.5034 13.2227 100.0295 12.7446 99.4472 12.7446 Z" fill="#ffffff"/>			</g>			<g>				<path d="M 109.1826 21.8011 C 108.1859 21.8011 107.3745 20.9772 107.3745 19.9639 C 107.3745 18.951 108.1859 18.1274 109.1826 18.1274 C 110.185 18.1274 111 18.951 111 19.9639 C 111 20.9772 110.185 21.8011 109.1826 21.8011 ZM 109.1826 18.8987 C 108.6053 18.8987 108.1364 19.3768 108.1364 19.9639 C 108.1364 20.5614 108.5959 21.0299 109.1826 21.0299 C 109.7649 21.0299 110.2381 20.5519 110.2381 19.9639 C 110.2381 19.3768 109.7649 18.8987 109.1826 18.8987 Z" fill="#ffffff"/>			</g>			<g>				<path d="M 106.8834 24.7056 C 105.8853 24.7056 105.0739 23.8817 105.0739 22.8689 C 105.0739 21.8551 105.8853 21.0299 106.8834 21.0299 C 107.8858 21.0299 108.7015 21.8551 108.7015 22.8689 C 108.7015 23.8817 107.8858 24.7056 106.8834 24.7056 ZM 106.8834 21.8011 C 106.3054 21.8011 105.8357 22.281 105.8357 22.8689 C 105.8357 23.4569 106.3054 23.9342 106.8834 23.9342 C 107.4657 23.9342 107.9396 23.4569 107.9396 22.8689 C 107.9396 22.281 107.4657 21.8011 106.8834 21.8011 Z" fill="#ffffff"/>			</g>		</g>	</g></svg>