<?xml version="1.0" encoding="UTF-8" standalone="no"?>
<svg width="34px" height="34px" viewBox="0 0 34 34" version="1.1" xmlns="http://www.w3.org/2000/svg" xmlns:xlink="http://www.w3.org/1999/xlink">
    <!-- Generator: Sketch 3.8.1 (29687) - http://www.bohemiancoding.com/sketch -->
    <title>user_image</title>
    <desc>Created with Sketch.</desc>
    <defs></defs>
    <g id="Page-1" stroke="none" stroke-width="1" fill="none" fill-rule="evenodd">
        <g id="user_image">
            <g id="Page-1">
                <g id="295---Profile-(Flat)">
                    <path d="M11.9397736,26.656 L6.86735849,29.4234717 C6.56969811,29.5857736 6.30218868,29.7846415 6.05328302,30.0027547 C9.01128299,32.4956604 12.8289057,34 17,34 C21.1403019,34 24.9335472,32.5181132 27.8825661,30.0585661 C27.6105661,29.8289057 27.3154717,29.6223396 26.9883019,29.4587547 L21.5566415,26.7432453 C20.8548302,26.3923396 20.4115472,25.675132 20.4115472,24.8905661 L20.4115472,22.7594717 C20.5642264,22.5856227 20.738717,22.3617358 20.9253962,22.098717 C21.6656981,21.0530566 22.2257358,19.9028302 22.6138491,18.6961509 C23.3098868,18.4812453 23.8230943,17.8378113 23.8230943,17.073132 L23.8230943,14.7983396 C23.8230943,14.2979623 23.601132,13.8508302 23.254717,13.5384151 L23.254717,10.2500377 C23.254717,10.2500377 23.9302264,5.13207547 17,5.13207547 C10.0697736,5.13207547 10.745283,10.2500377 10.745283,10.2500377 L10.745283,13.5384151 C10.398868,13.8508302 10.1769057,14.2979623 10.1769057,14.7983396 L10.1769057,17.073132 C10.1769057,17.6723019 10.4918868,18.1996227 10.9627547,18.5043396 C11.531132,20.9786415 13.0194339,22.7594717 13.0194339,22.7594717 L13.0194339,24.8373208 C13.0194339,25.5955849 12.6056604,26.2935472 11.9397736,26.656" id="Fill-628" fill="#78818F"></path>
                    <path d="M0.00256603773,16.7093962 C-0.0885283015,22.032 2.28377358,26.8157358 6.06098113,29.9969811 C6.30796227,29.7814339 6.57290566,29.5838491 6.86735849,29.4234717 L11.9397736,26.656 C12.6056604,26.2935472 13.0194339,25.5955849 13.0194339,24.8373208 L13.0194339,22.7594717 C13.0194339,22.7594717 11.531132,20.9786415 10.9627547,18.5043396 C10.4918868,18.1996227 10.1769057,17.6723019 10.1769057,17.073132 L10.1769057,14.7983396 C10.1769057,14.2979623 10.398868,13.8508302 10.745283,13.5384151 L10.745283,10.2500377 C10.745283,10.2500377 10.0697736,5.13207547 17,5.13207547 C23.9302264,5.13207547 23.254717,10.2500377 23.254717,10.2500377 L23.254717,13.5384151 C23.601132,13.8508302 23.8230943,14.2979623 23.8230943,14.7983396 L23.8230943,17.073132 C23.8230943,17.8378113 23.3098868,18.4812453 22.6138491,18.6961509 C22.2257358,19.9028302 21.6656981,21.0530566 20.9253962,22.098717 C20.738717,22.3617358 20.5642264,22.5856227 20.4115472,22.7594717 L20.4115472,24.8905661 C20.4115472,25.675132 20.8548302,26.3923396 21.5566415,26.7432453 L26.9883019,29.4587547 C27.3141887,29.6223396 27.6086415,29.8276227 27.88,30.0566415 C31.5430189,27.001132 33.9095472,22.4342264 33.9974339,17.2906038 C34.1578113,7.90339623 26.6778113,0.162943396 17.2906038,0.00256603773 C7.90339623,-0.15781132 0.162943396,7.32218868 0.00256603773,16.7093962 L0.00256603773,16.7093962 Z" id="Fill-3181" fill="#B5BBC6"></path>
                </g>
            </g>
        </g>
    </g>
</svg>